<svg width="87" height="30" viewBox="0 0 87 30" fill="none" xmlns="http://www.w3.org/2000/svg">
<g clip-path="url(#clip0_15_554)">
<path d="M2.66316 6.45349C0.984637 8.87847 0 11.8225 0 14.9991C0 18.1757 0.984637 21.1197 2.66316 23.5465C4.67346 21.1519 5.77226 18.1435 5.77226 15.0009C5.77226 11.8583 4.67167 8.84984 2.66316 6.45528V6.45349Z" fill="#E20101"/>
<path d="M4.95889 3.84239C4.38808 4.35781 3.85652 4.91619 3.37134 5.51214C5.66347 8.14651 6.92103 11.495 6.92103 14.9991C6.92103 18.5033 5.66347 21.8517 3.37134 24.4861C3.85831 25.082 4.38808 25.6404 4.95889 26.1558C7.70767 23.0776 9.21495 19.1386 9.21495 14.9991C9.21495 10.8596 7.70945 6.91881 4.95889 3.84239Z" fill="#E20101"/>
<path d="M19.386 14.9991C19.386 18.1883 22.1258 21.2718 27.1186 23.7165C28.8703 21.2593 29.9013 18.2509 29.9013 14.9991C29.9013 11.7473 28.8703 8.73889 27.1186 6.28169C22.1276 8.72636 19.386 11.8099 19.386 14.9991Z" fill="#E20101"/>
<path d="M10.0944 18.0916C9.52713 21.3506 8.06801 24.3876 5.84009 26.8932C8.36233 28.8403 11.5214 30 14.9498 30C17.192 30 19.3182 29.5043 21.2286 28.6166C15.2477 25.6547 11.4161 22.0128 10.0944 18.0916Z" fill="#E20101"/>
<path d="M21.2286 1.3834C19.32 0.495735 17.192 0 14.9498 0C11.5214 0 8.36233 1.1597 5.84009 3.10684C8.06979 5.61236 9.52891 8.64225 10.0944 11.9048C11.4179 7.98544 15.2494 4.34528 21.2268 1.38519L21.2286 1.3834Z" fill="#E20101"/>
<path d="M18.239 14.9991C18.239 11.3965 21.1305 7.99081 26.3997 5.35464C25.2991 4.04104 23.9791 2.92071 22.4968 2.04915C14.9016 5.62667 10.724 10.2136 10.724 14.9991C10.724 19.7846 14.9016 24.3715 22.4968 27.949C23.9809 27.0775 25.3009 25.9554 26.3997 24.6436C21.1305 22.0074 18.239 18.6035 18.239 14.9991Z" fill="#E20101"/>
<path d="M40.6466 23.9778V5.76627H43.2473V14.0792H43.299L47.0966 5.76627H49.6974L46.153 13.0555L50.3591 23.9778H47.605L44.6475 15.8957L43.2455 18.5301V23.9778H40.6448H40.6466Z" fill="#E20101"/>
<path d="M51.3545 23.9778V11.01H53.9552V12.3916C54.4814 11.9137 55.0005 11.5397 55.5107 11.2659C56.0208 10.9939 56.6487 10.856 57.3979 10.856V13.6193C57.1428 13.5173 56.8788 13.4654 56.6077 13.4654C56.3365 13.4654 56.0422 13.5119 55.7283 13.6067C55.4143 13.6998 55.1289 13.8591 54.8739 14.0792C54.6009 14.3011 54.3815 14.5911 54.2103 14.949C54.0408 15.3069 53.9552 15.7508 53.9552 16.2787V23.9778H51.3545Z" fill="#E20101"/>
<path d="M58.4414 8.37558V5.76627H61.0421V8.37558H58.4414ZM58.4414 23.9778V11.01H61.0421V23.9778H58.4414Z" fill="#E20101"/>
<path d="M63.1826 23.9778V11.01H65.7833V12.2627H65.8351C66.1062 11.8529 66.4344 11.5164 66.8161 11.2516C67.1979 10.9867 67.6866 10.8543 68.2824 10.8543C68.6053 10.8543 68.9281 10.9097 69.251 11.0207C69.5738 11.1317 69.8628 11.3142 70.1179 11.5701C70.373 11.826 70.5763 12.1536 70.7297 12.5544C70.8831 12.9553 70.9598 13.4457 70.9598 14.0255V23.976H68.3591V14.9991C68.3591 14.5213 68.2485 14.1472 68.0273 13.8734C67.8061 13.6014 67.4922 13.4636 67.0837 13.4636C66.5914 13.4636 66.2507 13.6175 66.0634 13.9235C65.8761 14.2313 65.7833 14.6734 65.7833 15.2532V23.9742H63.1826V23.9778Z" fill="#E20101"/>
<path d="M73.1003 8.37558V5.76627H75.7011V8.37558H73.1003ZM73.1003 23.9778V11.01H75.7011V23.9778H73.1003Z" fill="#E20101"/>
<path d="M77.8416 23.9778V5.76627H80.4423V16.6617H80.494L83.6299 11.01H86.2306L83.1465 16.2787L86.8692 23.9778H84.0401L81.6945 18.3762L80.4458 20.3448V23.976H77.8451L77.8416 23.9778Z" fill="#E20101"/>
</g>
<defs>
<clipPath id="clip0_15_554">
<rect width="86.8657" height="30" fill="#E20101"/>
</clipPath>
</defs>
</svg>
